<svg width="51" height="51" viewBox="0 0 51 51" fill="none" xmlns="http://www.w3.org/2000/svg">
<path d="M29.2852 42.6328C39.2975 42.6328 47.4141 34.5162 47.4141 24.5039C47.4141 14.4916 39.2975 6.375 29.2852 6.375C19.2728 6.375 11.1562 14.4916 11.1562 24.5039C11.1562 34.5162 19.2728 42.6328 29.2852 42.6328Z" fill="white"/>
<path d="M25.5 0V0.006375C18.454 0.006375 12.0798 2.85919 7.46991 7.46911C2.85998 12.079 0.00717187 18.454 0.00717187 25.4984H0V25.5H0.006375C0.006375 32.546 2.85919 38.921 7.46911 43.5309C12.079 48.1408 18.454 50.9936 25.4984 50.9936V51H25.5V50.9936C32.546 50.9936 38.921 48.1408 43.5309 43.5309C48.1408 38.921 50.9936 32.546 50.9936 25.5008H51V25.5H50.9936C50.9936 18.454 48.1408 12.0798 43.5309 7.46991C38.921 2.85998 32.546 0.006375 25.5008 0.006375L25.5 0ZM21.2423 17.6309C20.4494 16.8165 20.4685 15.5144 21.2829 14.7215C22.0965 13.9294 23.3994 13.9469 24.1923 14.7621L33.256 24.1087L31.781 25.543L33.2616 24.1079C34.0545 24.9255 34.0353 26.2307 33.2161 27.0244C33.193 27.0475 33.1683 27.0698 33.1444 27.0914L24.1915 36.2443C23.3986 37.0587 22.0965 37.0778 21.2821 36.2849C20.4677 35.4936 20.4494 34.1907 21.2415 33.3763L28.9082 25.5367L21.2423 17.6309Z" fill="#262626"/>
</svg>
