<svg width="24" height="14" viewBox="0 0 24 14" fill="none" xmlns="http://www.w3.org/2000/svg">
<path d="M23.0866 11.7247C23.0866 11.6415 23.0866 11.6415 23.0033 11.6415C22.6703 10.9755 21.9211 10.0598 20.7557 9.0609C20.3395 8.64468 20.0065 8.3117 19.84 8.06197C19.5903 7.72899 19.507 7.39601 19.7568 7.14628C19.84 6.89654 20.173 6.39708 20.7557 5.56463C21.0887 5.14841 21.3384 4.81543 21.5049 4.56569C22.8368 2.73431 23.4195 1.65213 23.3363 1.06942L23.2531 0.986172C23.2531 0.902927 23.1698 0.902927 22.9201 0.736437C22.6703 0.569948 22.5039 0.653193 22.1709 0.736437H18.8411C18.8411 0.736437 18.7578 0.736437 18.5914 0.736437C18.5081 0.736437 18.5081 0.736437 18.5081 0.736437H18.4249L18.3416 0.819682C18.3416 0.902926 18.2584 0.902926 18.2584 1.06942C17.9254 1.98511 17.5092 2.9008 17.0097 3.65C16.6767 4.06622 16.427 4.56569 16.2605 4.89867C16.094 5.23165 15.8443 5.48138 15.6778 5.64787C15.5945 5.73112 15.3448 5.98085 15.2616 6.0641C15.1783 6.14734 15.0118 6.14734 14.9286 6.14734C14.8453 6.14734 14.8453 6.14734 14.6789 6.14734C14.5956 6.0641 14.4291 6.0641 14.4291 5.81436C14.3459 5.73112 14.3459 5.56463 14.3459 5.39814C14.3459 5.14841 14.3459 5.06516 14.3459 4.98192C14.3459 4.89867 14.3459 4.64894 14.3459 4.3992C14.3459 4.14947 14.3459 3.98298 14.3459 3.98298C14.3459 3.65 14.3459 3.31702 14.3459 2.98404C14.3459 2.65106 14.3459 2.31809 14.3459 2.23484C14.3459 1.98511 14.3459 1.81862 14.3459 1.56888C14.3459 1.31915 14.3459 1.15266 14.3459 0.986172C14.3459 0.819682 14.2626 0.736437 14.2626 0.653192C14.2626 0.569948 14.1794 0.403458 14.0129 0.403458C13.6799 0.403458 13.5967 0.320214 13.3469 0.320214C12.9307 0.236969 12.4312 0.236969 11.7653 0.236969C10.2669 0.236969 9.43444 0.236969 8.93497 0.486703C8.85173 0.569948 8.68524 0.736437 8.51875 0.819682C8.43551 1.06942 8.43551 1.15266 8.51875 1.15266C8.93497 1.15266 9.26795 1.40239 9.51769 1.56888L9.60093 1.65213C9.60093 1.73537 9.68418 1.90186 9.68418 2.23484C9.68418 2.48458 9.76742 2.81755 9.76742 3.15053C9.76742 3.73325 9.76742 4.14947 9.76742 4.64894C9.76742 5.06516 9.68418 5.3149 9.68418 5.56463C9.68418 5.81436 9.60093 5.98085 9.60093 6.14734C9.51769 6.23059 9.3512 6.39708 9.3512 6.48032C9.3512 6.48032 9.3512 6.48032 9.26795 6.56356C9.18471 6.56356 9.01822 6.64681 8.93497 6.64681C8.85173 6.64681 8.68524 6.64681 8.51875 6.56356C8.51875 6.23059 8.26901 6.14734 8.18577 5.89761C7.93604 5.64787 7.85279 5.48138 7.60306 5.14841C7.35332 4.81543 7.18684 4.3992 6.9371 3.89974L6.68737 3.56676C6.60412 3.31702 6.43763 2.98404 6.27114 2.65107C6.02141 2.23484 5.93817 1.73537 5.68843 1.4024C5.68843 1.15266 5.60519 1.06942 5.4387 1.06942H5.35545C5.35545 1.06942 5.27221 0.986172 5.10572 0.986172C4.93923 0.986172 4.85598 0.902927 4.85598 0.902927H1.5262C1.19322 0.902927 0.943485 0.986171 0.86024 1.15266V1.2359C0.86024 1.2359 0.86024 1.31915 0.86024 1.48564C0.776995 1.48564 0.86024 1.56888 0.86024 1.73537C1.27646 2.81755 1.85918 3.89973 2.44189 4.89867C3.0246 5.89761 3.44082 6.73005 3.94029 7.39601C4.27327 8.06197 4.60625 8.64468 5.02247 9.2274C5.4387 9.81011 5.68843 10.1431 5.77168 10.2263C5.85492 10.3096 6.02141 10.4761 6.10465 10.5593L6.43763 10.8923C6.68737 11.142 6.85386 11.3085 7.18684 11.5582C7.51981 11.808 7.93604 12.141 8.43551 12.3074C8.85173 12.5572 9.3512 12.7237 10.0172 12.9734C10.5999 13.0567 11.0993 13.2231 11.682 13.2231H13.014C13.2637 13.2231 13.4302 13.1399 13.6799 12.9734V12.8902C13.6799 12.8902 13.7632 12.8069 13.7632 12.6404C13.7632 12.4739 13.7632 12.3907 13.7632 12.3074C13.7632 11.9745 13.7632 11.6415 13.8464 11.3918C13.9297 11.142 13.9297 10.9755 14.0961 10.809C14.0961 10.5593 14.1794 10.4761 14.1794 10.3928C14.2626 10.3096 14.2626 10.3096 14.4291 10.1431H14.5124C14.7621 10.0598 14.9286 10.1431 15.1783 10.3928C15.4281 10.6426 15.5945 10.809 15.8443 11.0588C16.094 11.3085 16.2605 11.6415 16.5935 11.9745C16.9265 12.3074 17.1762 12.5572 17.3427 12.7237L17.5924 12.8069C17.6757 12.8902 17.9254 13.0567 18.1751 13.0567C18.4249 13.1399 18.5914 13.1399 18.8411 13.1399H22.0876C22.4206 13.1399 22.6703 13.1399 22.7536 13.0567C22.8368 12.9734 23.0033 12.8069 23.0866 12.7237C23.0866 12.6404 23.0866 12.4739 23.0866 12.3074C23.0866 11.808 23.0866 11.7247 23.0866 11.7247Z" fill="white"/>
</svg>
