<svg width="55" height="70" viewBox="0 0 55 70" fill="none" xmlns="http://www.w3.org/2000/svg">
<g clip-path="url(#clip0)">
<path fill-rule="evenodd" clip-rule="evenodd" d="M0.00341797 -0.0032959H33.267L54.3585 21.0882V69.9997H0.00341797V-0.0032959Z" fill="#F1C33A"/>
<path fill-rule="evenodd" clip-rule="evenodd" d="M33.2576 0.00341797H33.2643L54.3558 21.0949H33.2576V0.00341797Z" fill="#222221"/>
<path d="M21.0745 64.5971H14.3879V54.3583H21.0745V56.5672H17.4327V58.1792H20.8059V60.3881H17.4327V62.3284H21.0745V64.5971Z" fill="#222221"/>
<path d="M31.5821 57.612C31.5821 58.7463 31.2239 59.6419 30.4776 60.2687C29.7314 60.8956 28.6866 61.1941 27.3135 61.1941H26.4478V64.5971H23.4329V54.3583H27.3135C28.7463 54.3583 29.7911 54.6269 30.5075 55.1941C31.2239 55.7613 31.5821 56.5971 31.5821 57.612ZM26.4776 58.9553H27.0448C27.4926 58.9553 27.8508 58.8359 28.1194 58.5971C28.3881 58.3583 28.5373 58.0299 28.5373 57.6419C28.5373 56.9553 28.1194 56.5971 27.2836 56.5971H26.5075V58.9553H26.4776Z" fill="#222221"/>
<path d="M41.134 61.4926C41.134 62.1195 40.9549 62.6867 40.5967 63.1941C40.2385 63.7016 39.731 64.0598 39.0743 64.3284C38.4176 64.5971 37.6116 64.7464 36.7161 64.7464C35.9698 64.7464 35.343 64.6867 34.8355 64.5971C34.328 64.5075 33.7907 64.3284 33.2534 64.0896V61.6419C33.8206 61.9105 34.4474 62.1195 35.0743 62.2687C35.7012 62.418 36.2683 62.5075 36.8057 62.5075C37.2534 62.5075 37.5818 62.4478 37.7907 62.2986C37.9997 62.1493 38.1191 61.9702 38.1191 61.7613C38.1191 61.612 38.0892 61.4926 37.9997 61.4031C37.9101 61.3135 37.7907 61.1941 37.5818 61.0747C37.4027 60.9553 36.8952 60.7464 36.0892 60.418C35.343 60.1195 34.8057 59.821 34.4474 59.5225C34.0892 59.224 33.8206 58.9255 33.6415 58.5374C33.4624 58.1493 33.3728 57.7314 33.3728 57.224C33.3728 56.2687 33.7609 55.5523 34.5071 55.015C35.2534 54.4777 36.2982 54.2389 37.6116 54.2389C38.7758 54.2389 39.9698 54.4777 41.1639 54.9852L40.2385 57.1046C39.1937 56.6568 38.2683 56.4478 37.5221 56.4478C37.134 56.4478 36.8355 56.5075 36.6564 56.627C36.4773 56.7464 36.3877 56.8956 36.3877 57.1046C36.3877 57.3135 36.5071 57.4926 36.7161 57.6419C36.9549 57.7911 37.5519 58.0896 38.5668 58.5075C39.5221 58.8956 40.2086 59.3434 40.5967 59.7911C40.9549 60.2389 41.134 60.8061 41.134 61.4926Z" fill="#222221"/>
<path d="M27.1045 46.597C18.8956 46.597 12.209 39.9104 12.209 31.7014C12.209 23.4925 18.8956 16.8059 27.1045 16.8059C35.3135 16.8059 42 23.4925 42 31.7014C42 39.9104 35.3135 46.597 27.1045 46.597ZM27.1045 19.5223C20.3881 19.5223 14.8956 24.985 14.8956 31.7313C14.8956 38.4477 20.3582 43.9402 27.1045 43.9402C33.8209 43.9402 39.3135 38.4775 39.3135 31.7313C39.3135 24.985 33.8209 19.5223 27.1045 19.5223Z" fill="#222221"/>
<path d="M32.2091 25.1344H22.0598V32.5971H32.2091V25.1344Z" fill="#222221"/>
<path d="M32.2091 33.7911H22.0598V36.2986H32.2091V33.7911Z" fill="#222221"/>
<path d="M32.2091 37.3732H22.0598V38.6269H32.2091V37.3732Z" fill="#222221"/>
</g>
<defs>
<clipPath id="clip0">
<rect width="54.3582" height="70" fill="white"/>
</clipPath>
</defs>
</svg>
