<svg width="55" height="70" viewBox="0 0 55 70" fill="none" xmlns="http://www.w3.org/2000/svg">
<path fill-rule="evenodd" clip-rule="evenodd" d="M0 0H33.2622L54.3528 21.0906V70H0V0Z" fill="#F1C33A"/>
<path fill-rule="evenodd" clip-rule="evenodd" d="M37.7213 47.1037H16.6172C16.5886 47.1037 16.5456 47.1037 16.5169 47.1037C16.4166 47.0894 16.302 47.075 16.216 47.0321C16.0584 46.9748 15.9008 46.8601 15.7862 46.7312C15.6716 46.6022 15.5856 46.4446 15.5283 46.2727C15.514 46.2011 15.4997 46.1294 15.4854 46.0721C15.4854 46.0435 15.4854 46.0005 15.4854 45.9718V19.2945C15.4854 19.2658 15.4854 19.2228 15.4854 19.1942C15.4997 19.0939 15.514 18.9793 15.557 18.8933C15.6143 18.7357 15.7289 18.5781 15.8579 18.4635C15.9868 18.3489 16.1444 18.2629 16.3163 18.2056C16.388 18.1913 16.4596 18.1769 16.5169 18.1626C16.5456 18.1626 16.5886 18.1626 16.6172 18.1626H37.7213C37.7499 18.1626 37.7929 18.1626 37.8216 18.1626C37.8502 18.1626 37.8932 18.1769 37.9219 18.1769C37.9935 18.1913 38.0651 18.2056 38.1225 18.2342C38.2514 18.2915 38.3803 18.3632 38.4806 18.4491C38.6096 18.5638 38.7099 18.7214 38.7815 18.879C38.8245 18.9793 38.8388 19.0795 38.8531 19.1798C38.8531 19.2085 38.8531 19.2515 38.8531 19.2801V45.9432C38.8531 45.9718 38.8531 46.0148 38.8531 46.0435C38.8388 46.1438 38.8245 46.2584 38.7815 46.3444C38.7242 46.502 38.6096 46.6596 38.4806 46.7742C38.3517 46.8888 38.1941 46.9748 38.0222 47.0321C37.9505 47.0464 37.8789 47.0607 37.8216 47.075C37.7929 47.0894 37.7643 47.0894 37.7213 47.1037ZM36.5751 20.4263H17.7634V44.8113H36.5751V20.4263ZM34.4833 40.1693V41.7596H19.2821V40.1693H34.4833ZM19.2821 36.831H34.4833V38.4214H19.2821V36.831ZM19.2821 33.4928H34.4833V35.0831H19.2821V33.4928ZM19.2821 30.1402H34.4833V31.7305H19.2821V30.1402ZM27.1764 23.4637H34.4833V28.3923H27.1764V23.4637ZM19.2821 26.8019H25.3282V28.3923H19.2821V26.8019ZM19.2821 23.4637H25.3282V25.054H19.2821V23.4637Z" fill="#222221"/>
<path fill-rule="evenodd" clip-rule="evenodd" d="M33.2527 0.00671387H33.2594L54.3501 21.0973H33.2527V0.00671387Z" fill="#222221"/>
<path d="M16.7293 64.1839H14.0515V53.7096H17.0335C18.2034 53.7096 19.0216 53.7637 19.4949 53.8786C19.9682 53.9936 20.3672 54.1897 20.6985 54.4669C21.084 54.7847 21.3815 55.1837 21.5844 55.6638C21.7872 56.1439 21.8886 56.6781 21.8886 57.2596C21.8886 57.8817 21.7872 58.4362 21.5911 58.9096C21.3883 59.3829 21.0975 59.7751 20.7053 60.0794C20.4078 60.3093 20.0629 60.4716 19.664 60.573C19.265 60.6744 18.6226 60.7218 17.7368 60.7218H16.736L16.7293 64.1839ZM16.7293 58.4227H17.2702C17.9599 58.4227 18.4333 58.328 18.7105 58.1387C18.981 57.9494 19.1162 57.6315 19.1162 57.1785C19.1162 56.739 18.981 56.4279 18.7173 56.2386C18.4536 56.0492 17.9802 55.9613 17.304 55.9613H16.7293V58.4227Z" fill="#222221"/>
<path d="M23.3357 64.1839V53.7096H25.5198C27.1494 53.7096 28.299 53.784 28.9684 53.9395C29.6379 54.095 30.2397 54.3452 30.7468 54.7036C31.4095 55.1634 31.9099 55.7585 32.2547 56.482C32.5996 57.2055 32.7687 58.0305 32.7687 58.9569C32.7687 59.8833 32.5996 60.7082 32.2547 61.4318C31.9166 62.1485 31.4095 62.7436 30.7468 63.2034C30.2397 63.555 29.6649 63.8052 29.0158 63.9608C28.3666 64.1163 27.3591 64.1839 25.9999 64.1839H23.3357ZM26.1622 61.8375H26.6423C27.7648 61.8375 28.583 61.6076 29.0969 61.1478C29.6108 60.688 29.8678 59.9577 29.8678 58.9569C29.8678 57.9561 29.6108 57.2191 29.0969 56.7525C28.583 56.2859 27.7648 56.0492 26.6423 56.0492H26.1622V61.8375Z" fill="#222221"/>
<path d="M34.5608 64.1839V53.7096H40.9779V56.0087H37.3467V57.8276H40.7751V60.0726H37.3467V64.1839H34.5608Z" fill="#222221"/>
</svg>
