<svg width="23" height="23" viewBox="0 0 23 23" fill="none" xmlns="http://www.w3.org/2000/svg">
<path d="M11.6324 2.82289C14.4627 2.82289 14.7957 2.82288 15.9611 2.90613C17.0433 2.98937 17.5427 3.15586 17.959 3.23911C18.4584 3.4056 18.7914 3.65533 19.2076 4.07156C19.6239 4.48778 19.7903 4.82076 20.0401 5.32023C20.2066 5.73645 20.3731 6.23592 20.3731 7.3181C20.4563 8.48352 20.4563 8.8165 20.4563 11.6468C20.4563 14.4771 20.4563 14.8101 20.3731 15.9755C20.2898 17.0577 20.1233 17.5572 20.0401 17.9734C19.8736 18.4729 19.6239 18.8059 19.2076 19.2221C18.7914 19.6383 18.4584 19.8048 17.959 20.0545C17.5427 20.221 17.0433 20.3875 15.9611 20.3875C14.7957 20.4708 14.4627 20.4708 11.6324 20.4708C8.80204 20.4708 8.46907 20.4708 7.30364 20.3875C6.22146 20.3043 5.72199 20.1378 5.30577 20.0545C4.8063 19.888 4.47332 19.6383 4.0571 19.2221C3.64087 18.8059 3.47438 18.4729 3.22465 17.9734C3.05816 17.5572 2.89167 17.0577 2.89167 15.9755C2.80843 14.8101 2.80843 14.4771 2.80843 11.6468C2.80843 8.8165 2.80843 8.48352 2.89167 7.3181C2.97492 6.23592 3.14141 5.73645 3.22465 5.32023C3.39114 4.82076 3.64087 4.48778 4.0571 4.07156C4.47332 3.65533 4.8063 3.48884 5.30577 3.23911C5.72199 3.07262 6.22146 2.90613 7.30364 2.90613C8.46907 2.82288 8.80204 2.82289 11.6324 2.82289ZM11.6324 0.825012C8.7188 0.825012 8.38582 0.825013 7.2204 0.908257C6.05497 0.991502 5.30577 1.15799 4.63981 1.40773C3.97385 1.65746 3.30789 2.07368 2.72518 2.6564C2.14247 3.23911 1.72625 3.82182 1.47651 4.57102C1.22678 5.23698 1.06029 6.06943 0.977044 7.15161C0.893799 8.31703 0.893799 8.65001 0.893799 11.5636C0.893799 14.4771 0.893799 14.8101 0.977044 15.9755C1.06029 17.141 1.22678 17.8902 1.47651 18.5561C1.72625 19.2221 2.14247 19.888 2.72518 20.4708C3.30789 21.0535 3.89061 21.4697 4.63981 21.7194C5.30577 21.9692 6.13821 22.1357 7.2204 22.2189C8.38582 22.3021 8.7188 22.3021 11.6324 22.3021C14.5459 22.3021 14.8789 22.3021 16.0443 22.2189C17.2098 22.1357 17.959 21.9692 18.6249 21.7194C19.2909 21.4697 19.9568 21.0535 20.5395 20.4708C21.1223 19.888 21.5385 19.3053 21.7882 18.5561C22.0379 17.8902 22.2044 17.0577 22.2877 15.9755C22.3709 14.8101 22.3709 14.4771 22.3709 11.5636C22.3709 8.65001 22.3709 8.31703 22.2877 7.15161C22.2044 5.98618 22.0379 5.23698 21.7882 4.57102C21.5385 3.90507 21.1223 3.23911 20.5395 2.6564C19.9568 2.07368 19.3741 1.65746 18.6249 1.40773C17.959 1.15799 17.1265 0.991502 16.0443 0.908257C14.9622 0.908257 14.5459 0.825012 11.6324 0.825012Z" fill="white"/>
<path d="M11.6323 6.06943C8.55228 6.06943 6.13818 8.56677 6.13818 11.5636C6.13818 14.6436 8.63552 17.0577 11.6323 17.0577C14.7124 17.0577 17.1265 14.5604 17.1265 11.5636C17.2097 8.56677 14.7124 6.06943 11.6323 6.06943ZM11.6323 15.1431C9.63446 15.1431 8.05281 13.5614 8.05281 11.5636C8.05281 9.5657 9.63446 7.98406 11.6323 7.98406C13.6302 7.98406 15.2119 9.5657 15.2119 11.5636C15.2119 13.5614 13.6302 15.1431 11.6323 15.1431Z" fill="white"/>
<path d="M18.7083 5.81968C18.7083 6.56889 18.1256 7.06835 17.4596 7.06835C16.7104 7.06835 16.2109 6.48564 16.2109 5.81968C16.2109 5.07048 16.7936 4.57101 17.4596 4.57101C18.1256 4.57101 18.7083 5.15373 18.7083 5.81968Z" fill="white"/>
</svg>
