<svg width="20" height="20" viewBox="0 0 20 20" fill="none" xmlns="http://www.w3.org/2000/svg">
<path d="M6.02324 16.808C6.02324 17.4739 5.7735 18.1399 5.27404 18.5561C4.77457 19.0556 4.19186 19.3053 3.5259 19.3053C2.85994 19.3053 2.19398 19.0556 1.77776 18.5561C1.27829 18.0566 1.02856 17.4739 1.02856 16.808C1.02856 16.142 1.27829 15.4761 1.77776 15.0598C2.27723 14.5604 2.85994 14.3106 3.5259 14.3106C4.19186 14.3106 4.85781 14.5604 5.27404 15.0598C5.7735 15.4761 6.02324 16.0588 6.02324 16.808ZM12.7661 18.3896C12.7661 18.6394 12.6828 18.8058 12.5163 19.0556C12.3498 19.2221 12.1833 19.3053 11.9336 19.3053H10.1855C9.93574 19.3053 9.76925 19.2221 9.60276 19.0556C9.43627 18.8891 9.35303 18.7226 9.35303 18.4729C9.18654 16.475 8.35409 14.7269 6.93893 13.3117C5.52377 11.8965 3.77563 11.0641 1.77776 10.8976C1.52803 10.8976 1.36154 10.8144 1.19505 10.6479C1.02856 10.4814 0.945312 10.3149 0.945312 10.0652V8.31702C0.945312 8.06728 1.02856 7.81755 1.19505 7.73431C1.36154 7.56782 1.52803 7.48457 1.77776 7.48457H1.861C3.27616 7.56782 4.60808 7.98404 5.85675 8.56675C7.10542 9.14947 8.27084 9.98191 9.26978 10.9808C10.2687 11.9798 11.1012 13.1452 11.6839 14.3939C12.2666 15.6425 12.5996 16.9745 12.7661 18.3896ZM19.5089 18.3896C19.5089 18.6394 19.4256 18.8058 19.2591 18.9723C19.0927 19.1388 18.9262 19.2221 18.6764 19.2221H16.7618C16.5121 19.2221 16.3456 19.1388 16.1791 18.9723C16.0126 18.8058 15.9294 18.6394 15.9294 18.3896C15.8461 16.475 15.3466 14.7269 14.5974 13.062C13.8482 11.3971 12.7661 9.89867 11.5174 8.65C10.2687 7.40133 8.77031 6.40239 7.10542 5.56994C5.44052 4.82074 3.60914 4.32127 1.77776 4.23803C1.52803 4.23803 1.36154 4.15478 1.19505 3.9883C1.02856 3.82181 0.945312 3.65532 0.945312 3.40558V1.49096C0.945312 1.24122 1.02856 1.07473 1.19505 0.908242C1.36154 0.741753 1.52803 0.658508 1.77776 0.658508C4.10861 0.741753 6.27297 1.32447 8.35409 2.24016C10.4352 3.15585 12.3498 4.48776 13.9315 6.06941C15.5964 7.73431 16.845 9.56569 17.7607 11.6468C18.8429 13.8944 19.3424 16.142 19.5089 18.3896Z" fill="white"/>
</svg>
