<svg width="20" height="16" viewBox="0 0 20 16" fill="none" xmlns="http://www.w3.org/2000/svg">
<path d="M0.593994 13.9734C2.34213 15.1388 4.42325 15.7215 6.67086 15.7215C14.0796 15.7215 18.2419 9.47818 17.9921 3.90079C18.7413 3.31808 19.4073 2.65212 19.99 1.81967C19.2408 2.15265 18.4916 2.31914 17.7424 2.48563C18.5748 1.98616 19.1576 1.23696 19.4905 0.321267C18.7413 0.737491 17.9089 1.07047 16.9932 1.3202C16.244 0.571001 15.2451 0.0715332 14.0796 0.0715332C11.499 0.0715332 9.66766 2.48563 10.2504 4.98297C6.92059 4.81648 4.00703 3.23483 2.0924 0.820735C1.09346 2.56887 1.59293 4.89972 3.34107 6.1484C2.67511 6.1484 2.0924 5.98191 1.50969 5.64893C1.42644 7.48031 2.75836 9.22845 4.67298 9.56143C4.09027 9.72792 3.50756 9.72792 2.8416 9.64467C3.34107 11.2263 4.83947 12.3917 6.58761 12.3917C4.75623 13.6404 2.67511 14.2231 0.593994 13.9734Z" fill="white"/>
</svg>
