<svg width="52" height="72" viewBox="0 0 52 72" fill="none" xmlns="http://www.w3.org/2000/svg">
<g clip-path="url(#clip0)">
<path d="M0.198986 35.6922C0.198986 16.0362 16.104 0.0951797 35.745 0.0351797V0.0341797H51.334V71.3712H35.745V71.3502C16.105 71.2892 0.198986 55.3492 0.198986 35.6922Z" fill="#262626"/>
<path d="M34.9518 35.737L23.0158 23.8C21.9218 22.708 21.9218 20.934 23.0158 19.841C24.1098 18.747 25.8818 18.747 26.9758 19.841L40.7358 33.603C41.1488 34.014 41.4038 34.523 41.5058 35.054C41.7768 36 41.5508 37.058 40.8058 37.804L27.0458 51.565C26.4988 52.112 25.7808 52.385 25.0648 52.385C24.3498 52.385 23.6318 52.112 23.0858 51.565C21.9908 50.469 21.9908 48.698 23.0858 47.604L34.9518 35.737Z" fill="white"/>
</g>
<defs>
<clipPath id="clip0">
<rect width="51.334" height="71.441" fill="white" transform="matrix(-1 0 0 1 51.334 0)"/>
</clipPath>
</defs>
</svg>
