<svg width="35" height="27" viewBox="0 0 35 27" fill="none" xmlns="http://www.w3.org/2000/svg">
<path d="M13.41 18.18H25.74C27.63 18.18 29.34 17.01 29.88 15.21L34.2 2.88H5.58L4.68 0.18C4.59 0.09 4.41 0 4.23 0H0.36C0.18 0 0 0.18 0 0.36V0.99C0 1.17 0.18 1.35 0.36 1.35H3.6L9.99 19.8C8.91 20.43 8.1 21.69 8.1 23.04C8.1 25.2 9.9 27 12.06 27C14.22 27 16.02 25.2 16.02 23.04C16.02 22.68 15.93 22.32 15.84 21.96H22.32C22.23 22.32 22.14 22.68 22.14 23.04C22.14 25.2 23.94 27 26.1 27C28.26 27 30.06 25.2 30.06 23.04C30.06 20.88 28.26 19.08 26.1 19.08C24.84 19.08 23.76 19.71 23.04 20.61H15.3C14.58 19.71 13.5 19.08 12.24 19.08C11.97 19.08 11.7 19.08 11.43 19.17L10.44 17.1C11.25 17.73 12.33 18.18 13.41 18.18ZM18.09 4.59H21.42H32.13L28.62 14.04C28.08 15.39 26.73 16.29 25.2 16.29H21.42H20.61H18.36H18.09H13.68C12.15 16.29 10.71 15.39 10.26 14.04L6.75 4.59H18.09Z" fill="black"/>
</svg>
