<svg width="24" height="27" viewBox="0 0 24 27" fill="none" xmlns="http://www.w3.org/2000/svg">
<path d="M19.98 0.0360336C17.73 0.0360336 15.93 1.836 15.93 3.996C15.93 4.446 16.02 4.80599 16.11 5.16599L6.93003 10.476C6.21003 9.66601 5.13003 9.12601 3.96003 9.12601C1.71003 9.12601 -0.0899658 10.926 -0.0899658 13.086C-0.0899658 15.246 1.71003 17.046 3.96003 17.046C4.77003 17.046 5.58003 16.776 6.30003 16.326L15.75 21.726C15.66 22.086 15.57 22.536 15.57 22.986C15.57 25.146 17.37 26.946 19.62 26.946C21.87 26.946 23.67 25.146 23.67 22.986C23.67 20.826 21.87 19.026 19.62 19.026C18.45 19.026 17.37 19.476 16.65 20.376L7.47003 15.156C7.83003 14.526 8.01003 13.896 8.01003 13.176C8.01003 12.726 7.92003 12.366 7.83003 12.006L17.01 6.696C17.73 7.506 18.81 8.046 19.98 8.046C22.23 8.046 24.03 6.24603 24.03 4.08603C24.03 1.74603 22.23 0.0360336 19.98 0.0360336Z" fill="black"/>
</svg>
