<svg width="29" height="27" viewBox="0 0 29 27" fill="none" xmlns="http://www.w3.org/2000/svg">
<path d="M19.89 14.4C21.51 12.87 22.5 10.71 22.5 8.37C22.41 3.78 18.72 0 14.13 0C9.54 0 5.76 3.78 5.76 8.37C5.76 10.71 6.75 12.87 8.28 14.4C3.42 16.56 0.09 21.33 0 27H28.17C28.08 21.42 24.75 16.65 19.89 14.4ZM14.04 15.12C10.35 15.12 7.38 12.15 7.38 8.46C7.38 4.77 10.35 1.8 14.04 1.8C14.04 1.8 14.04 1.8 14.13 1.8C14.13 1.8 14.13 1.8 14.22 1.8C17.82 1.8 20.79 4.77 20.79 8.37C20.79 8.37 20.79 8.37 20.79 8.46C20.79 8.73 20.79 8.91 20.7 9.18C20.7 9.27 20.7 9.27 20.7 9.36C20.7 9.54 20.61 9.72 20.61 9.99V10.08C19.71 12.96 17.1 15.12 14.04 15.12Z" fill="black"/>
</svg>
