<svg width="14" height="25" viewBox="0 0 14 25" fill="none" xmlns="http://www.w3.org/2000/svg">
<path d="M6.61855 0.493078C8.53318 0.243344 10.1981 1.07579 11.2803 2.07473C12.1959 2.90717 13.1949 4.48882 13.2781 6.15372C13.5279 9.73324 10.864 12.4803 7.78398 12.8133C4.20446 13.1463 1.29089 10.6489 0.957916 7.40239C0.708182 3.90611 2.7893 1.6585 5.0369 0.826056C5.53637 0.659567 6.11909 0.659567 6.61855 0.493078ZM4.70393 7.06941C4.95366 8.65106 6.86829 9.56675 8.28345 8.98404C9.28238 8.48457 10.4478 6.81967 9.36563 5.15478C9.03265 4.65531 8.2002 3.82287 6.86829 4.0726C5.53637 4.32233 4.45419 5.40451 4.70393 7.06941ZM9.69861 17.808C10.6143 18.8902 11.53 19.7226 12.6122 20.8048C12.9451 21.1378 13.3614 21.3875 13.5279 21.887C14.1106 23.5519 12.6954 24.7173 11.2803 24.3011C10.5311 24.0513 9.8651 23.1356 9.28238 22.4697C9.03265 22.2199 8.69967 21.887 8.28345 21.4707C8.28345 21.4707 7.53425 20.555 7.36776 20.555C7.28451 20.555 6.61855 21.3042 6.36882 21.4707C6.03584 21.8037 5.61962 22.2199 5.36988 22.4697C4.78717 23.0524 4.03797 24.1346 3.37201 24.3843C1.95685 24.967 0.291958 23.5519 0.957916 21.9702C1.20765 21.3875 2.28983 20.3886 2.87254 19.9723C3.62175 19.2231 4.20446 18.8069 4.78717 17.9745C3.45526 17.475 1.29089 17.142 0.624937 15.9766C-0.207509 14.6447 1.12441 12.73 2.7893 13.3128C3.12228 13.396 3.5385 13.6457 3.70499 13.8122C5.28664 14.6447 7.78398 14.8944 9.78185 14.1452C10.6143 13.8955 11.197 13.3128 11.7797 13.1463C13.6944 12.6468 14.5268 14.9777 13.6111 16.1431C13.2781 16.6425 12.4457 16.9755 11.7797 17.2253C11.1138 17.475 10.4478 17.6415 9.69861 17.808Z" fill="white"/>
</svg>
