<svg width="23" height="16" viewBox="0 0 23 16" fill="none" xmlns="http://www.w3.org/2000/svg">
<path d="M21.8919 2.90293C21.6422 1.98723 20.893 1.23803 19.9773 0.988298C18.2292 0.48883 11.4031 0.488831 11.4031 0.488831C11.4031 0.488831 4.57703 0.48883 2.82889 0.988298C1.9132 1.23803 1.164 1.98723 0.914263 2.90293C0.414795 4.56782 0.414795 8.14734 0.414795 8.14734C0.414795 8.14734 0.414795 11.7269 0.914263 13.475C1.164 14.3907 1.9132 15.1399 2.82889 15.3896C4.57703 15.8891 11.4031 15.8891 11.4031 15.8891C11.4031 15.8891 18.2292 15.8891 19.9773 15.3896C20.893 15.1399 21.6422 14.3907 21.8919 13.475C22.3914 11.7269 22.3914 8.14734 22.3914 8.14734C22.3914 8.14734 22.3914 4.56782 21.8919 2.90293Z" fill="white"/>
<path d="M9.15552 11.4771V4.90079L14.8994 8.14733L9.15552 11.4771Z" fill="#222221"/>
</svg>
